<svg id="Layer_1" data-name="Layer 1" xmlns="http://www.w3.org/2000/svg" viewBox="0 0 629.47 792"><defs><style>.cls-1{fill:#231f20;}.cls-2{fill:#f8f7f8;}</style></defs><rect class="cls-1" width="629.47" height="792"/><path class="cls-2" d="M251,379a129.32,129.32,0,0,0,3.94,12.48q2.76,7.67,6.11,16.36t4.75,12.65q4.65,13.43,5.41,18.93v4.48a17.69,17.69,0,0,1-1,6.11,10.89,10.89,0,0,1-2.81,4.47,5.56,5.56,0,0,1-3.84,1.64H223.64q-3.13,0-5.41-3.61a15.89,15.89,0,0,1-2.27-8.61v-4.48q.87-5.5,5.41-18.93.85-2.42,7.08-18.76T236.18,379a19.34,19.34,0,0,0,.54-6.71,8.76,8.76,0,0,0-1.62-5c-.8-.92-1.55-1.21-2.27-.86a2.94,2.94,0,0,0-1.3,2.23,15.16,15.16,0,0,0,.21,5,14.27,14.27,0,0,1-.1,6.37,18.2,18.2,0,0,1-6.43,9.12q-4.71,3.61-7.73,0a9.19,9.19,0,0,1-.92-1.38A5.12,5.12,0,0,1,216,386a10.57,10.57,0,0,1-.16-1.55V347.62a16.19,16.19,0,0,1,1.08-6,11.59,11.59,0,0,1,2.86-4.39,5.59,5.59,0,0,1,3.84-1.63h39.88c2.09,0,3.9,1.2,5.41,3.61a15.89,15.89,0,0,1,2.27,8.61v35.8a14.35,14.35,0,0,1-.11,1.46,10.13,10.13,0,0,1-.27,1.55,11.46,11.46,0,0,1-.43,1.29,4.62,4.62,0,0,1-.7,1.21q-3.15,3.61-7.79.09a17.79,17.79,0,0,1-6.37-9.21,14.25,14.25,0,0,1-.11-6.37,12.12,12.12,0,0,0,.21-5,2.93,2.93,0,0,0-1.29-2.23c-.72-.35-1.48-.06-2.27.86a8.33,8.33,0,0,0-1.62,4.82A19.61,19.61,0,0,0,251,379Z" transform="translate(17.47)"/><path class="cls-2" d="M322.66,342.45a166.09,166.09,0,0,1-4.87,30.29c-2.6,9.86-8.85,14.55-9.4,23.78a9.6,9.6,0,0,1-1.46,4.9,3.77,3.77,0,0,1-3.17,2h-6.2a4.08,4.08,0,0,1-2.91-1c-.85-.83-1.25-2.55-1.2-5.13.05-.84.06-1.86,0-3.05s-.05-2.23-.08-3.1,0-1.91,0-3.1,0-2.22-.08-3.06v-4.16a10.92,10.92,0,0,1,.53-3.2,6.29,6.29,0,0,1,2.39-2.71,7.72,7.72,0,0,0,2-2,2.56,2.56,0,0,0,.53-1.65c-.05-.58-.43-.9-1.13-1a3.37,3.37,0,0,0-2.68,1.07,8.75,8.75,0,0,0-2.47,3.2,13.1,13.1,0,0,0-.9,3.29,20.59,20.59,0,0,0-.29,2.91v4.65q.22,10.28.22,11.92V399c0,.2,0,.47,0,.83a5.67,5.67,0,0,1-.11.87,4.94,4.94,0,0,1-.22.73,2.72,2.72,0,0,1-.38.67,3,3,0,0,1-2.61,1.26h-8.07a3.84,3.84,0,0,1-3.21-2,8.57,8.57,0,0,1-1.35-4.85V342.45a6.85,6.85,0,0,1,1.91-4.84,6.12,6.12,0,0,1,4.67-2h34.06a6.53,6.53,0,0,1,6.5,6.87Zm-20.47,8.73a2.14,2.14,0,0,0-.45-2,2.1,2.1,0,0,0-2.16-.58,4.06,4.06,0,0,0-2.84,1.84q-2.46,3.39-1.42,8.62.53,3.3,2.09,2.62c.9-.32,1.37-1.36,1.42-3.1a5.22,5.22,0,0,0,0-.58c0-.26,0-.42,0-.49a2.7,2.7,0,0,1,.07-.67,4.79,4.79,0,0,1,1.72-3A5.78,5.78,0,0,0,302.19,351.18Zm40.13,19a21.67,21.67,0,0,1,.44-6.54,15.29,15.29,0,0,0,.43-4.82,3.1,3.1,0,0,0-1-2.23c-.51-.35-1.08-.06-1.73.86a11.18,11.18,0,0,0-1.52,4.82,24.51,24.51,0,0,0-.1,6.88q.64,8.44,5.29,13.77a15.9,15.9,0,0,0,9.41,5.85,11.38,11.38,0,0,0,2.86,0c1-.11,2-.22,2.87-.34a6,6,0,0,1,2.64.26,5.16,5.16,0,0,1,2.44,1.81q2,2.92,2.05,10.15v43.21a14.62,14.62,0,0,1-2.54,8.61c-1.7,2.41-3.73,3.61-6.11,3.61h-45c-2.37,0-4.41-1.2-6.1-3.61a13.94,13.94,0,0,1-2.43-8.61A198,198,0,0,1,305.9,423a28.58,28.58,0,0,1,1.67-6.2,14.86,14.86,0,0,1,3.3-4.64q7-6.72,16.43-3.27a19.6,19.6,0,0,1,7.57,4.9,16.78,16.78,0,0,1,4.32,7.83,13.25,13.25,0,0,1-.32,6.37,12.57,12.57,0,0,0-.44,5,2.86,2.86,0,0,0,1.41,2.24c.79.35,1.62.06,2.48-.86a8.76,8.76,0,0,0,2.06-5,17.57,17.57,0,0,0-.22-6.71,26.41,26.41,0,0,0-7.89-13.95,19.51,19.51,0,0,0-10.59-5.68,15.6,15.6,0,0,0-5.62,0,9.68,9.68,0,0,1-3.52.35,3.14,3.14,0,0,1-2.43-2.24c-.07-.8-.12-1.43-.16-1.89a7.49,7.49,0,0,1,.43-2.33c.33-1.09.63-2,.92-2.67s.67-1.63,1.14-2.84.84-2.09,1.13-2.67a105.76,105.76,0,0,0,5.3-20.48,152.91,152.91,0,0,0,1.51-20.48,20.86,20.86,0,0,1,1.84-8.61q1.72-3.62,4.1-3.61h30.27a3.78,3.78,0,0,1,2.87,1.63,12.23,12.23,0,0,1,2.16,4.48,22.17,22.17,0,0,1,.81,6.11v21.51q0,6.72-2.16,10.16-3.47,5.34-9.95,4.13a13.69,13.69,0,0,1-7.24-3.79A16.38,16.38,0,0,1,342.32,370.17Z" transform="translate(17.47)"/><path class="cls-2" d="M283.13,417.52c-.4.1-.7.47-.9,1.12a3.44,3.44,0,0,0,0,2.37,5.68,5.68,0,0,0,1.49,2.38,10.51,10.51,0,0,0,5.52,2.23,33.3,33.3,0,0,0,7.37.37,4.94,4.94,0,0,1,5.52,3.31,10.48,10.48,0,0,1,.26,2.64v19a5.79,5.79,0,0,1-1.22,3.71,3.7,3.7,0,0,1-3,1.57h-22a3.74,3.74,0,0,1-3-1.57A5.76,5.76,0,0,1,272,451V409.49a5.78,5.78,0,0,1,1.25-3.71,3.73,3.73,0,0,1,3-1.56h22a3.69,3.69,0,0,1,3,1.56,5.81,5.81,0,0,1,1.22,3.71V417a10.5,10.5,0,0,1-.53,3.79,4.41,4.41,0,0,1-3.34,2.75,21.61,21.61,0,0,1-6.36.26q-4.5-.26-6.11-1.6a4,4,0,0,1-1.13-2.45,3.84,3.84,0,0,0-.78-1.86A1,1,0,0,0,283.13,417.52Zm1.74,24.75a4.33,4.33,0,0,0-.9,2,1.84,1.84,0,0,0,.36,1.56,1.26,1.26,0,0,0,1.43.45,2.47,2.47,0,0,0,1.79-1.42c1-1.73,1.14-3.94.42-6.61-.48-1.69-1.07-2.35-1.79-2-.52.25-.69,1-.53,2.38a1,1,0,0,0,0,.22l.06.3a1.53,1.53,0,0,1,0,.3,3.86,3.86,0,0,1,.06.52A3.94,3.94,0,0,1,284.87,442.27Z" transform="translate(17.47)"/></svg>